<svg xmlns="http://www.w3.org/2000/svg" width="54" height="32" fill="none" viewBox="0 0 54 32"><path fill="#1A1A19" d="M35.18 15.56a.5.5 0 0 0-.5.5c0 .29.22.5.5.5a.5.5 0 0 0 0-1m0-3.01a.5.5 0 1 0 0 1 .5.5 0 0 0 0-1m0 1.5a.5.5 0 0 0-.5.51.5.5 0 1 0 .5-.5m1.31-3.79a.5.5 0 0 0 0 1 .5.5 0 1 0 .01-1m0-1.32a.31.31 0 1 0 0 .63.3.3 0 0 0 .32-.32.33.33 0 0 0-.32-.31m-1.31 9.16a.5.5 0 1 0 0-1 .5.5 0 0 0 0 1m0-7.09a.5.5 0 1 0 0 1 .5.5 0 0 0 0-1m-1.31 5.34a.5.5 0 0 0-.51.5.5.5 0 1 0 .5-.5m0-.7a.3.3 0 1 0 0-.62.3.3 0 0 0 0 .62m-2.63 0a.31.31 0 1 0-.32-.31c0 .16.16.31.32.31m1.32 3.8c.18 0 .31-.16.31-.31a.33.33 0 0 0-.43-.3.3.3 0 0 0-.2.3c0 .15.16.31.32.31M33.87 12a.31.31 0 0 0 0 .62c.18 0 .3-.16.3-.31q0-.3-.31-.31m-2.63 0a.31.31 0 1 0 .31.31q0-.3-.31-.31m3.95-2.48a.5.5 0 1 0 0 1 .5.5 0 0 0 0-1m0-1.32a.31.31 0 1 0 0 .62.31.31 0 0 0 0-.62m-1.31 10.7a.5.5 0 0 0 .5-.5.5.5 0 0 0-.51-.51.5.5 0 0 0-.5.5c0 .29.22.5.5.5m2.63-5.58a.5.5 0 0 0-.5.5c0 .29.22.5.5.5a.5.5 0 1 0 .01-1m5.84-1.5a.5.5 0 1 0 0 1 .5.5 0 0 0 0-1m0-1.54a.5.5 0 1 0 0 1 .5.5 0 0 0 0-1m-4.52 3.8a.5.5 0 1 0 0 1 .5.5 0 0 0 0-1m4.52-5.3a.5.5 0 1 0 0 1 .5.5 0 0 0 0-1m0 7.59a.5.5 0 1 0 0 1 .5.5 0 0 0 0-1m0-1.54a.5.5 0 1 0 0 1 .5.5 0 0 0 0-1m0-1.51a.5.5 0 0 0-.5.5c0 .29.22.5.5.5a.5.5 0 0 0 0-1M28.6 14.8a.5.5 0 0 0-.5.5c0 .3.21.51.5.51a.5.5 0 0 0 .5-.5c.03-.25-.22-.5-.5-.5m7.9 2.54a.5.5 0 1 0-.5-.5c-.04.28.21.5.5.5m1.31-4.8a.5.5 0 1 0 0 1 .5.5 0 0 0 0-1m-3.94-2.29a.5.5 0 1 0 .34.15.5.5 0 0 0-.35-.15m2.63 4.55a.5.5 0 0 0 0 1 .5.5 0 1 0 0-1m1.32 1.6a.31.31 0 1 0 0-.63.33.33 0 0 0-.31.31c0 .16.13.32.31.32m0-5.4a.5.5 0 1 0 0 1 .5.5 0 0 0 0-1m-7.9 7.59a.5.5 0 0 0-.5.5c0 .29.22.5.5.5a.5.5 0 0 0 .5-.5c.04-.27-.22-.5-.5-.5m0-6.05a.5.5 0 1 0 .5.5c.04-.28-.22-.5-.5-.5m3.96-3.8a.5.5 0 0 0-.51.5.5.5 0 1 0 .5-.49m-3.95.75a.5.5 0 1 0 .5.5c.04-.28-.22-.5-.5-.5m0-1.51a.5.5 0 0 0-.5.5c0 .29.22.5.5.5a.5.5 0 0 0 0-1m0 9.1a.5.5 0 1 0 .5.5c.04-.28-.22-.5-.5-.5m0-1.54a.5.5 0 0 0-.5.5c0 .29.22.5.5.5a.5.5 0 0 0 .5-.5c.04-.25-.22-.5-.5-.5m0-1.5a.5.5 0 1 0 .5.5c.04-.29-.22-.5-.5-.5m-1.31 3.8a.5.5 0 1 0 0 1 .5.5 0 0 0 0-1m0 1.5a.5.5 0 0 0-.5.5c0 .28.21.5.5.5a.5.5 0 0 0 .5-.5c.03-.25-.22-.5-.5-.5M29.9 24a.31.31 0 1 0-.31-.31c0 .15.15.31.31.31m-1.31-7.65a.5.5 0 0 0-.5.5c0 .28.21.5.5.5a.5.5 0 0 0 .5-.5c.03-.28-.22-.5-.5-.5m13.73 1.5a.5.5 0 1 0 0 1 .5.5 0 0 0 0-1M28.6 20.9a.5.5 0 0 0-.5.5c0 .29.21.51.5.51a.5.5 0 0 0 .5-.5c.03-.29-.22-.5-.5-.5m0 2.53a.5.5 0 1 0 0-1 .5.5 0 0 0 0 1m1.31-12.42a.5.5 0 1 0 0 1 .5.5 0 0 0 0-1m2.64-1.5a.5.5 0 1 0 0 1 .5.5 0 0 0 0-1m0 1.5a.5.5 0 1 0 0 1 .5.5 0 0 0 0-1m0-3.01a.5.5 0 0 0-.5.5c0 .29.22.5.5.5a.5.5 0 0 0 0-1M31.23 18.9a.5.5 0 0 0 .5-.5.5.5 0 1 0-1-.01c0 .29.22.5.5.5m-1.32 1.25a.5.5 0 0 0-.5.5c0 .29.22.5.5.5a.5.5 0 0 0 .5-.5c.04-.28-.22-.5-.5-.5m2.64-4.58a.5.5 0 0 0-.5.5c0 .29.22.5.5.5a.5.5 0 0 0 0-1m0 2.54a.5.5 0 1 0 0-1 .5.5 0 0 0 0 1m-1.32-7.84a.5.5 0 1 0 0 1 .5.5 0 0 0 0-1m0-1.5a.5.5 0 1 0 .5.5c.03-.29-.22-.5-.5-.5M29.9 21.64a.5.5 0 1 0 .5.5c.04-.28-.22-.5-.5-.5m1.32-5.3a.5.5 0 1 0 .5.5c.03-.28-.22-.5-.5-.5m5.26-4.55a.5.5 0 0 0 0 1 .5.5 0 1 0 .01-1m12.38-2.3a.5.5 0 0 0-.5.5c0 .3.22.5.5.5a.5.5 0 0 0 0-1m0 1.51a.5.5 0 1 0 0 1 .5.5 0 0 0 0-1m0 6.09a.5.5 0 1 0 0 1 .5.5 0 0 0 0-1m0-1.54a.5.5 0 0 0-.5.5c0 .29.22.5.5.5a.5.5 0 0 0 0-1m1.32-6.8a.5.5 0 0 0-.5.5c0 .28.21.5.5.5a.5.5 0 0 0 0-1m0 3.04a.5.5 0 0 0-.5.5c0 .28.21.5.5.5a.5.5 0 0 0 0-1m0 1.5a.5.5 0 0 0-.5.5c0 .29.21.5.5.5a.5.5 0 0 0 0-1m0-3.04a.5.5 0 0 0-.5.5c0 .28.21.5.5.5a.5.5 0 0 0 0-1m-2.63 0a.5.5 0 0 0-.51.5.5.5 0 1 0 .5-.5m1.3-2.07a.31.31 0 1 0 .32.31.3.3 0 0 0-.31-.31m-1.3 3.8a.31.31 0 1 0 .3.31c.01-.2-.12-.31-.3-.31m0 3.01a.31.31 0 1 0 0 .63.32.32 0 1 0 0-.64m1.3 3.8a.31.31 0 1 0 0 .63.31.31 0 0 0 0-.63m-1.3-10.04a.5.5 0 0 0-.51.5.5.5 0 1 0 .5-.49m0 7.6a.5.5 0 1 0 .34.15.5.5 0 0 0-.35-.15m0 2.54a.5.5 0 0 0 .5-.5.5.5 0 0 0-.5-.51.5.5 0 0 0-.51.5c0 .29.22.5.5.5m-1.32.56c.18 0 .3-.16.3-.31a.33.33 0 0 0-.3-.31.3.3 0 0 0-.32.31c0 .15.16.31.32.31m6.58-9a.31.31 0 1 0 .32.31.33.33 0 0 0-.32-.31m-1.32 7.46a.31.31 0 1 0-.31-.31c0 .19.13.31.31.31m-1.31.76a.31.31 0 1 0-.31-.32q.01.3.3.32m2.63-5.87a.5.5 0 1 0-.5-.5c-.03.28.22.5.5.5m0 2a.5.5 0 0 0-.5.5c0 .3.22.51.5.51a.5.5 0 0 0 0-1m0-1.5a.5.5 0 0 0-.5.5c0 .29.22.5.5.5a.5.5 0 0 0 0-1m-1.32 2.26a.5.5 0 0 0-.5.5c0 .29.22.5.5.5a.5.5 0 0 0 0-1m0-1.5a.5.5 0 1 0 0 1 .5.5 0 0 0 0-1m-1.31 2.29a.5.5 0 0 0-.5.5c0 .28.21.5.5.5a.5.5 0 0 0 0-1M51.5 9.5a.5.5 0 1 0 0 1 .5.5 0 0 0 0-1m0 3.04a.5.5 0 1 0 0 1 .5.5 0 0 0 0-1m-1.3 2.26a.5.5 0 0 0-.5.5c0 .28.21.5.5.5a.5.5 0 0 0 0-1m1.3-3.8a.5.5 0 1 0 0 1 .5.5 0 0 0 0-1m-7.86 4.55a.5.5 0 0 0-.51.5c0 .29.22.5.5.5a.5.5 0 0 0 0-1m-1.32 3.8a.5.5 0 1 0 0 1 .5.5 0 0 0 0-1m1.32-2.26a.5.5 0 1 0 .34.15.5.5 0 0 0-.35-.15m2.6 0a.5.5 0 1 0 .5.5c.03-.28-.22-.5-.5-.5m-2.6 4.55a.5.5 0 0 0-.51.5.5.5 0 1 0 .5-.5m0-3.05a.5.5 0 0 0-.51.5c0 .29.22.5.5.5a.5.5 0 0 0 0-1m0-6.05a.5.5 0 1 0 0 1 .5.5 0 0 0 0-1m0 7.59a.5.5 0 0 0-.5.5c0 .29.22.5.5.5a.5.5 0 0 0 0-1m0-10.63a.5.5 0 1 0 0 1 .5.5 0 0 0 0-1m0 14.49a.31.31 0 1 0-.3-.31c-.04.15.12.31.3.31m-1.3-.57a.5.5 0 1 0-.51-.5c-.04.26.22.5.5.5m0-2.54a.5.5 0 0 0-.5.5.5.5 0 1 0 .5-.49M43.65 11a.5.5 0 0 0-.51.5.5.5 0 1 0 .5-.5m0-3.01a.5.5 0 0 0-.51.5c0 .29.22.5.5.5a.5.5 0 0 0 0-1m1.28.75a.5.5 0 0 0-.5.5.5.5 0 1 0 1 .01c.04-.29-.22-.5-.5-.5m-1.28 5.3a.5.5 0 0 0-.51.51.5.5 0 1 0 .5-.5M46.25 8a.5.5 0 0 0-.5.5c0 .29.22.5.5.5a.5.5 0 0 0 0-1m0 1.5a.5.5 0 0 0-.5.5c0 .3.22.5.5.5a.5.5 0 0 0 .5-.5c.03-.27-.22-.5-.5-.5m-1.32 13.93a.5.5 0 1 0-.5-.5c0 .26.22.5.5.5m1.32-7.87a.5.5 0 0 0-.5.5c0 .29.22.5.5.5a.5.5 0 0 0 .5-.5c.03-.25-.22-.5-.5-.5m-1.32 5.33a.5.5 0 0 0-.5.5.5.5 0 1 0 1 .01c.04-.29-.22-.5-.5-.5m1.32-9.88a.5.5 0 1 0 0 1 .5.5 0 0 0 0-1m-1.32 5.34a.5.5 0 1 0 .5.5c.04-.28-.22-.5-.5-.5m0-1.54a.5.5 0 1 0 .5.5c.04-.25-.22-.5-.5-.5m0-1.51a.5.5 0 0 0-.5.5c0 .29.22.5.5.5a.5.5 0 0 0 .5-.5c.04-.28-.22-.5-.5-.5m0-1.5a.5.5 0 1 0 .5.5c.04-.29-.22-.5-.5-.5m0-1.54a.5.5 0 1 0 0 1 .5.5 0 0 0 0-1m0 7.6a.5.5 0 1 0 0 1 .5.5 0 0 0 0-1m0 1.5a.5.5 0 1 0 .5.5c.04-.25-.22-.5-.5-.5M23.92 8.94a.31.31 0 1 0 0 .63.31.31 0 0 0 0-.63M9.5 17.1a.5.5 0 1 0 0 1 .5.5 0 0 0 0-1m0-1.54a.5.5 0 0 0-.5.5c0 .29.22.5.5.5a.5.5 0 0 0 0-1m0-2.83a.32.32 0 1 0 .22.54.31.31 0 0 0-.22-.53m0 1.31a.5.5 0 0 0-.5.51.5.5 0 1 0 .5-.5m1.32 4.62a.31.31 0 1 0-.31-.32c-.04.19.12.32.31.32M9.5 18.6a.5.5 0 0 0-.5.5c0 .29.22.5.5.5a.5.5 0 0 0 0-1m0 2.55a.5.5 0 0 0 .5-.51.5.5 0 0 0-1 0c-.03.29.22.5.5.5m-1.31 2.28a.5.5 0 0 0 0-1 .5.5 0 0 0-.51.5c-.03.26.22.5.5.5m0-5.58a.5.5 0 1 0 .34.15.5.5 0 0 0-.35-.15m-1.32 2.29a.5.5 0 0 0-.5.5c0 .29.22.5.5.5a.5.5 0 0 0 0-1m0 1.5a.5.5 0 0 0-.5.5c0 .3.22.51.5.51a.5.5 0 0 0 0-1m1.32-5.3a.5.5 0 0 0-.51.5c0 .29.22.5.5.5a.5.5 0 0 0 0-1m0 4.55a.5.5 0 0 0-.51.5.5.5 0 1 0 .5-.49m0-1.53a.5.5 0 0 0-.51.5c0 .28.22.5.5.5a.5.5 0 0 0 .01-1m3.91-2.76a.5.5 0 1 0 0-1 .5.5 0 0 0 0 1m0-2.55a.5.5 0 0 0-.5.51.5.5 0 0 0 1 0c.03-.29-.21-.5-.5-.5m0-1.5a.5.5 0 1 0 .5.5c.03-.28-.21-.5-.5-.5m0-1.54a.5.5 0 1 0 0 1 .5.5 0 0 0 0-1m1.32 7.66a.31.31 0 1 0 0-.63.31.31 0 0 0 0 .63m0-8.41a.5.5 0 1 0 0 1 .5.5 0 0 0 0-1m-2.6 0a.5.5 0 0 0-.5.5c0 .28.21.5.5.5a.5.5 0 0 0 0-1m1.28-.75a.5.5 0 1 0 .5.5c.03-.28-.21-.5-.5-.5m-1.28 2.29a.5.5 0 0 0-.5.5c0 .28.21.5.5.5a.5.5 0 0 0 0-1m0 3a.5.5 0 0 0-.5.5c0 .3.21.51.5.51a.5.5 0 0 0 0-1m0-1.5a.5.5 0 0 0-.5.5c0 .29.21.5.5.5a.5.5 0 0 0 0-1m0 3.05a.5.5 0 0 0-.5.5c0 .28.21.5.5.5a.5.5 0 0 0 0-1m1.28-8.16a.31.31 0 1 0 0 .62.3.3 0 0 0 .31-.31c.04-.19-.12-.31-.31-.31m-1.28.75a.31.31 0 1 0 .31.31.33.33 0 0 0-.31-.31m2.6 0a.31.31 0 1 0 0 .63.31.31 0 0 0 0-.63M2.95 11.29a.5.5 0 1 0-.5-.5c0 .25.22.5.5.5m1.28-1.78a.5.5 0 0 0-.5.49c0 .29.22.5.5.5a.5.5 0 0 0 0-1m0 1.51a.5.5 0 1 0 0 1 .5.5 0 0 0 0-1m0 3.04a.5.5 0 0 0-.5.51.5.5 0 1 0 .5-.5m0-1.5a.5.5 0 1 0 0 1 .5.5 0 0 0 0-1m-1.28 1.78a.5.5 0 1 0-.5-.5c0 .26.22.51.5.51m10.47-2.54a.5.5 0 1 0 .5.5c.03-.29-.22-.5-.5-.5m-10.47 1a.5.5 0 1 0 0-1 .5.5 0 0 0 0 1M4.23 8a.5.5 0 0 0-.5.5c0 .29.22.5.5.5a.5.5 0 1 0 0-1m-2.6 1.5a.5.5 0 0 0-.5.5c0 .3.22.5.5.5a.5.5 0 0 0 .5-.5c.04-.27-.22-.5-.5-.5m0-1.5a.5.5 0 0 0-.5.5c0 .29.22.5.5.5a.5.5 0 0 0 0-1m-1.32.94a.31.31 0 1 0 .32.31C.66 9.1.5 8.94.3 8.94m1.32 2.07a.5.5 0 1 0 0 1 .5.5 0 0 0 0-1m1.32-2.26a.5.5 0 0 0-.5.5.5.5 0 1 0 .5-.49m1.28 9.16a.31.31 0 1 0 0-.62.31.31 0 0 0 0 .62m1.32-7.46a.31.31 0 1 0 0 .62.31.31 0 0 0 0-.62M6.87 24a.31.31 0 1 0 0-.63.31.31 0 0 0 0 .63m0-9.76a.32.32 0 0 0 0 .63c.18 0 .31-.16.31-.31a.33.33 0 0 0-.31-.32m0-1.5a.32.32 0 1 0 .22.54.31.31 0 0 0-.22-.54m10.5 0a.32.32 0 0 0-.35.45.3.3 0 0 0 .35.18c.19 0 .32-.16.32-.32 0-.19-.14-.31-.32-.31M8.2 15a.31.31 0 0 0 0 .63c.18 0 .31-.16.31-.32a.33.33 0 0 0-.31-.32m7.86.01a.31.31 0 1 0 .23.53.32.32 0 0 0-.23-.54m-10.5 2.86a.5.5 0 1 0 0 1 .5.5 0 0 0 0-1m0 1.51a.5.5 0 1 0 0 1 .5.5 0 0 0 0-1m-1.32-3.8a.5.5 0 0 0-.5.5c0 .29.22.5.5.5a.5.5 0 0 0 0-1m2.64 0a.5.5 0 0 0-.5.5c0 .29.22.5.5.5a.5.5 0 0 0 0-1m0 1.54a.5.5 0 1 0 0 1 .5.5 0 0 0 0-1m0 1.5a.5.5 0 0 0-.5.5c0 .29.22.5.5.5a.5.5 0 0 0 0-1m-1.32-6.8a.5.5 0 1 0 0 1 .5.5 0 0 0 0-1m0 4.55a.5.5 0 1 0 0 1 .5.5 0 0 0 0-1m0 5.36a.31.31 0 1 0-.32-.32c0 .2.14.32.32.32m0-6.9a.5.5 0 1 0 .47.69.5.5 0 0 0-.47-.69m0-1.51a.5.5 0 0 0-.5.5c0 .29.22.5.5.5a.5.5 0 0 0 0-1m13.14 8.4a.31.31 0 0 0 0-.62.33.33 0 0 0-.32.31q.02.3.32.32m2.63-9.9a.5.5 0 1 0 0 1 .5.5 0 0 0 0-1m0-1.54a.5.5 0 1 0 0 1 .5.5 0 0 0 0-1m0 4.07a.5.5 0 1 0-.5-.5c-.03.26.22.51.5.51m1.32-2.3a.5.5 0 1 0-.5-.5c0 .29.21.5.5.5m-1.32-3.29a.5.5 0 0 0-.5.5.5.5 0 1 0 .5-.49m1.32.76a.5.5 0 0 0-.5.5c0 .28.21.5.5.5a.5.5 0 0 0 0-1m0-1.51a.5.5 0 0 0-.5.5c0 .29.21.5.5.5a.5.5 0 0 0 0-1M20 14.05a.5.5 0 0 0-.5.51.5.5 0 1 0 .5-.5M20 11a.5.5 0 1 0 0 1 .5.5 0 0 0 0-1m0-1.5a.5.5 0 1 0 0 1 .5.5 0 0 0 0-1M20 8a.5.5 0 0 0-.5.5c0 .29.22.5.5.5a.5.5 0 0 0 0-1m7.3 16a.31.31 0 1 0-.3-.31c-.03.15.13.31.3.31M20 17.91a.31.31 0 1 0-.12-.6.3.3 0 0 0-.18.29q0 .3.3.31m0-2.35a.5.5 0 0 0-.5.5c0 .29.22.5.5.5a.5.5 0 0 0 0-1m0-3.01a.5.5 0 1 0 0 1 .5.5 0 0 0 0-1m7.3 6.05a.5.5 0 0 0 0 1 .5.5 0 1 0 .01-1m0 3.05a.5.5 0 1 0 0 1 .5.5 0 0 0 0-1m0-1.51a.5.5 0 0 0-.5.5c0 .29.22.5.5.5a.5.5 0 0 0 0-1M28.6 8.75a.5.5 0 0 0-.5.5c0 .29.21.51.5.51a.5.5 0 0 0 .5-.5c.03-.29-.22-.5-.5-.5m0 1.5a.5.5 0 0 0-.5.5c0 .28.21.5.5.5a.5.5 0 0 0 0-1m0 1.54a.5.5 0 0 0-.5.5c0 .28.21.5.5.5a.5.5 0 0 0 .5-.5c.03-.29-.22-.5-.5-.5m-1.3 2.25a.5.5 0 0 0-.5.51c0 .28.23.5.5.5a.5.5 0 1 0 .01-1m0 3.05a.5.5 0 0 0 0 1 .5.5 0 1 0 .01-1m0-4.55a.5.5 0 0 0 0 1 .5.5 0 1 0 .01-1m0-3.04a.5.5 0 1 0 0 1 .5.5 0 1 0 .01-1m0 1.5a.5.5 0 0 0 0 1 .5.5 0 1 0 .01-1m0-3.01a.5.5 0 1 0 0 1 .5.5 0 1 0 .01-1m0 7.56a.5.5 0 1 0 .28.92.5.5 0 0 0-.27-.92M13.43 13.3a.5.5 0 0 0-.5.5c0 .29.22.5.5.5a.5.5 0 0 0 .5-.5c.03-.28-.22-.5-.5-.5m2.63 3.05a.5.5 0 1 0 0 1 .5.5 0 0 0 0-1m-1.32 2.25a.5.5 0 0 0-.5.5c0 .29.22.5.5.5a.5.5 0 0 0 .51-.5c.03-.27-.22-.5-.5-.5m2.63 5.4a.31.31 0 1 0 0-.63.31.31 0 0 0 0 .63m-1.32-6.15a.5.5 0 1 0 0 1 .5.5 0 0 0 0-1m0 5.58a.5.5 0 1 0-.5-.5c0 .26.22.5.5.5m0-4.07a.5.5 0 0 0 0 1 .5.5 0 0 0 0-1m0 1.53a.5.5 0 0 0-.5.5.5.5 0 1 0 .5-.49m-1.32.26a.5.5 0 0 0 .51-.51.5.5 0 0 0-1 0c0 .29.21.5.5.5m0-8.42a.32.32 0 1 0 0 .64c.2 0 .32-.16.32-.32q-.02-.3-.32-.31m-1.31 3.6a.5.5 0 0 0-.5.5c0 .29.22.5.5.5a.5.5 0 0 0 .5-.5c.03-.27-.22-.5-.5-.5m0-1.53a.5.5 0 1 0 .5.5c.03-.25-.22-.5-.5-.5m1.31 2.29a.5.5 0 0 0 0 1 .5.5 0 0 0 .51-.5c.03-.28-.22-.5-.5-.5m0-3.05a.5.5 0 0 0-.5.51c0 .28.22.5.5.5a.5.5 0 0 0 .51-.5c.03-.29-.22-.5-.5-.5m0 1.51a.5.5 0 0 0-.5.5c0 .29.22.5.5.5a.5.5 0 1 0 .01-1m3.96-.75a.5.5 0 1 0 0 1 .5.5 0 0 0 0-1m0-1.51a.5.5 0 0 0-.5.5c0 .29.22.5.5.5a.5.5 0 0 0 0-1m0 6.06a.5.5 0 0 0 0 1 .5.5 0 0 0 0-1m-1.32-5.12a.32.32 0 0 0-.35.45.32.32 0 1 0 .35-.45m1.32 3.61a.5.5 0 1 0 0 1 .5.5 0 0 0 0-1m0-1.5a.5.5 0 1 0 0 1 .5.5 0 0 0 0-1m0-5.9a.3.3 0 1 0 0 .62.33.33 0 0 0 .31-.31.33.33 0 0 0-.31-.31m0 1.35a.5.5 0 1 0 0 1 .5.5 0 0 0 0-1m-1.32 5.3a.5.5 0 1 0 0 1 .5.5 0 0 0 0-1m0-1.54a.5.5 0 0 0-.5.5c0 .29.22.5.5.5a.5.5 0 0 0 0-1m0 3.04a.5.5 0 0 0-.5.5c0 .29.22.5.5.5a.5.5 0 0 0 0-1m11.23-5.3a.5.5 0 0 0-.5.5c0 .29.21.5.5.5a.5.5 0 0 0 .5-.5c.03-.28-.22-.5-.5-.5m-11.23 6.84a.5.5 0 0 0-.5.5c0 .29.22.5.5.5a.5.5 0 0 0 0-1m0 1.5a.5.5 0 0 0-.5.5c0 .3.22.51.5.51a.5.5 0 0 0 0-1"/></svg>